<?xml version="1.0" encoding="UTF-8" standalone="no"?>
<!-- Created with Inkscape (http://www.inkscape.org/) -->

<svg
   width="210mm"
   height="210mm"
   viewBox="0 0 210 210"
   version="1.1"
   id="svg5"
   xml:space="preserve"
   xmlns:xlink="http://www.w3.org/1999/xlink"
   xmlns="http://www.w3.org/2000/svg"
   xmlns:svg="http://www.w3.org/2000/svg"><defs
     id="defs2"><rect
       x="201"
       y="185.77931"
       width="397.66763"
       height="430.54196"
       id="rect1802" /><linearGradient
       id="linearGradient1732"><stop
         style="stop-color:#62bbc1;stop-opacity:1;"
         offset="0"
         id="stop1728" /><stop
         style="stop-color:#1a4042;stop-opacity:1;"
         offset="1"
         id="stop1730" /></linearGradient><linearGradient
       id="linearGradient5776"><stop
         style="stop-color:#ecf8f8;stop-opacity:1;"
         offset="0"
         id="stop5772" /><stop
         style="stop-color:#b5e1e2;stop-opacity:1;"
         offset="1"
         id="stop5774" /></linearGradient><linearGradient
       id="linearGradient3354"><stop
         style="stop-color:#62bbc1;stop-opacity:1;"
         offset="0"
         id="stop3350" /><stop
         style="stop-color:#1a4042;stop-opacity:1;"
         offset="1"
         id="stop3352" /></linearGradient><linearGradient
       xlink:href="#linearGradient3354"
       id="linearGradient3356"
       x1="105.26245"
       y1="14.471761"
       x2="105.26245"
       y2="189.47176"
       gradientUnits="userSpaceOnUse"
       gradientTransform="matrix(1.0500001,0,0,1.2000004,-5.5255859,-17.366115)" /><linearGradient
       xlink:href="#linearGradient5776"
       id="linearGradient4843"
       gradientUnits="userSpaceOnUse"
       gradientTransform="matrix(1.0053985,0,0,1.1431887,-0.8305375,-11.572948)"
       x1="5.2624631"
       y1="189.47171"
       x2="205.26248"
       y2="70.817856" /><linearGradient
       xlink:href="#linearGradient1732"
       id="linearGradient1734"
       x1="20.858641"
       y1="106.11175"
       x2="189.1413"
       y2="106.11175"
       gradientUnits="userSpaceOnUse" /></defs><g
     id="layer1"><rect
       style="fill:url(#linearGradient3356);fill-opacity:1;fill-rule:evenodd;stroke-width:0.297002"
       id="rect1139"
       width="210"
       height="210"
       x="0"
       y="-3.5527137e-15"
       ry="20.523581" /><rect
       style="fill:url(#linearGradient4843);fill-opacity:1;fill-rule:evenodd;stroke-width:0.283661"
       id="rect1139-5"
       width="201.0797"
       height="200.05798"
       x="4.4603391"
       y="4.9710121"
       ry="19.551928" /><path
       d="m 64.207938,22.095087 c -1.380555,0.354995 -2.590178,1.380546 -3.221287,2.734804 l -0.355004,0.749446 -0.03943,6.797568 -0.03943,6.810717 h -0.28926 c -0.433889,0 -3.168693,0.749447 -4.43091,1.209632 -7.58646,2.7611 -13.818663,8.980155 -16.553467,16.540318 -0.460185,1.275366 -1.196483,3.997021 -1.196483,4.430909 v 0.289261 l -6.810717,0.03943 -6.797576,0.03943 -0.880924,0.43388 c -2.090547,1.025558 -3.129246,3.208144 -2.550732,5.351285 0.368153,1.406844 1.143888,2.366659 2.419254,2.984619 l 0.880925,0.433888 6.600346,0.03943 6.613505,0.03943 v 1.959068 1.97221 H 31.21935 c -7.034235,0 -7.073681,0.01318 -8.349046,0.854626 -2.997768,1.985367 -2.498147,6.534614 0.880915,8.138678 0.578523,0.262964 0.775744,0.276113 7.205167,0.315558 l 6.600356,0.03943 v 1.959068 1.959069 l -6.600356,0.03943 -6.613495,0.03943 -0.749447,0.355003 c -0.959808,0.447029 -1.867029,1.367399 -2.314065,2.314065 -0.289261,0.631109 -0.354996,0.933518 -0.341847,1.867028 0,0.946668 0.05261,1.235921 0.368144,1.932772 0.460185,0.999262 1.354258,1.893341 2.419254,2.379815 l 0.749438,0.354988 6.534612,0.03952 6.547762,0.03952 v 1.893334 1.893334 l -6.46887,0.0395 c -6.403134,0.0395 -6.495166,0.0525 -7.231464,0.34185 -1.051847,0.42074 -1.972217,1.30167 -2.498138,2.36666 -0.394449,0.78889 -0.433887,0.98611 -0.433887,1.99851 0.01318,0.92037 0.0657,1.24908 0.354996,1.86704 0.460185,0.9861 1.23592,1.81444 2.169438,2.28777 l 0.762595,0.38129 6.66609,0.0395 6.67924,0.0394 v 1.95907 1.95907 l -6.534613,0.0395 -6.547761,0.0395 -0.82833,0.3813 c -1.604073,0.73629 -2.787398,2.53758 -2.787398,4.19424 0,0.65741 0.262964,1.6961 0.578514,2.31407 0.368153,0.6837 1.341109,1.57776 2.15629,1.95906 l 0.749447,0.35501 6.613495,0.0395 6.600356,0.0395 v 1.95907 1.9722 h -6.271649 c -3.799808,0 -6.521464,0.0659 -6.876468,0.14458 -1.459438,0.32871 -2.826836,1.64352 -3.30017,3.15555 -0.315558,1.02556 -0.315558,1.72241 0.01318,2.76112 0.407591,1.30165 1.301664,2.30091 2.629616,2.93202 0.578522,0.26296 0.775743,0.2761 7.205167,0.31555 l 6.600348,0.0395 v 1.95907 1.95907 l -6.600348,0.0394 -6.613496,0.0395 -0.736298,0.34184 c -1.038698,0.48647 -1.748698,1.18333 -2.248321,2.19573 -0.381302,0.7889 -0.433889,0.99926 -0.433889,1.99853 0,0.99926 0.05261,1.22278 0.433889,1.9985 0.525919,1.065 1.446289,1.94592 2.498136,2.36667 0.749447,0.30241 0.802033,0.30241 7.481272,0.34185 l 6.744982,0.0394 v 0.28925 c 0,0.43389 0.736297,3.16869 1.209624,4.43091 2.761109,7.58646 8.980162,13.81867 16.540325,16.55347 1.288515,0.46019 3.997023,1.19648 4.444059,1.19648 h 0.28926 v 6.28479 c 0,3.95759 0.05261,6.57405 0.144627,7.07369 0.276113,1.52518 1.262217,2.76111 2.721656,3.44481 0.631108,0.30241 0.92037,0.35499 1.867036,0.35499 0.920362,-0.0128 1.235921,-0.0658 1.840732,-0.35499 1.0124,-0.47334 1.722401,-1.13074 2.248328,-2.1037 l 0.447028,-0.82834 0.03943,-6.67923 0.03943,-6.66609 h 1.959068 1.972218 v 6.27165 c 0,6.87645 0.02634,7.13942 0.775735,8.29645 0.762594,1.19648 2.471849,2.12999 3.891841,2.12999 0.775735,0 2.129999,-0.44704 2.734796,-0.90721 0.631114,-0.47334 1.235935,-1.23592 1.590931,-1.98537 0.262966,-0.57852 0.276106,-0.77574 0.315551,-7.20516 l 0.03951,-6.60035 h 1.959068 1.959069 l 0.03938,6.60035 0.03951,6.6135 0.354984,0.74944 c 0.44704,0.95981 1.288521,1.80129 2.287784,2.27462 0.670548,0.32872 0.933513,0.38129 1.893318,0.38129 0.946665,0.0126 1.235923,-0.0525 1.906483,-0.35498 1.025543,-0.47334 1.919623,-1.36743 2.392955,-2.37982 l 0.368149,-0.80204 0.03938,-6.54776 0.03938,-6.5346 h 1.959081 1.959071 l 0.0395,6.67923 c 0.0395,6.57406 0.0395,6.67924 0.32871,7.27091 0.47333,0.97296 1.27535,1.77498 2.24832,2.24833 0.78889,0.39444 0.99927,0.43388 1.9985,0.43388 0.99927,0 1.22279,-0.0526 1.99853,-0.43388 1.065,-0.52592 1.94592,-1.4463 2.36665,-2.49814 0.28926,-0.7363 0.30241,-0.82834 0.34184,-7.21833 l 0.0395,-6.482 h 1.90648 1.89333 v 6.14016 c 0,6.63979 0.0395,7.11313 0.69686,8.23071 1.86702,3.1687 6.52145,3.02407 8.13867,-0.2761 l 0.43388,-0.88092 0.0395,-6.60036 0.0395,-6.61349 h 1.95907 1.9722 v 6.31108 c 0,6.14017 0.0128,6.32425 0.28926,7.19202 0.23668,0.74945 0.42074,1.0387 1.15705,1.76185 0.74942,0.76258 0.9861,0.92038 1.76184,1.15702 1.065,0.32872 1.76185,0.34186 2.72166,0.0658 1.35424,-0.38129 2.44554,-1.36742 3.08979,-2.74797 0.23666,-0.48647 0.24983,-1.01239 0.28927,-7.13942 l 0.0395,-6.60035 h 1.95907 1.95907 l 0.0395,6.60035 0.0395,6.6135 0.35501,0.74944 c 0.44703,0.95982 1.28851,1.80129 2.28776,2.27462 0.67055,0.32872 0.93352,0.38129 1.89333,0.38129 0.94666,0.0126 1.23592,-0.0526 1.90647,-0.35498 1.02557,-0.47334 1.91963,-1.36742 2.39297,-2.37982 l 0.36814,-0.80204 0.0394,-6.81071 0.0395,-6.79758 h 0.28924 c 0.4339,0 3.15556,-0.73629 4.43093,-1.19647 7.56014,-2.73481 13.77921,-8.96701 16.54031,-16.55347 0.47333,-1.27537 1.20963,-3.99703 1.20963,-4.44405 v -0.28927 h 6.2848 c 3.95759,0 6.57405,-0.0525 7.07369,-0.14458 1.52517,-0.27612 2.76109,-1.26222 3.4448,-2.72166 0.30242,-0.6311 0.355,-0.92036 0.355,-1.86704 -0.0126,-0.92037 -0.0658,-1.23592 -0.355,-1.84072 -0.47333,-1.0124 -1.13075,-1.72241 -2.10369,-2.24834 l -0.82834,-0.44704 -6.66609,-0.0394 -6.67926,-0.0395 v -1.95907 -1.9722 h 6.28482 c 6.9159,0 7.17886,-0.0264 8.29645,-0.80204 0.88093,-0.60481 1.55149,-1.49888 1.85387,-2.47185 0.32872,-1.05185 0.32872,-1.73555 0,-2.78739 -0.40758,-1.30168 -1.30165,-2.30093 -2.62961,-2.93204 -0.57851,-0.26296 -0.77573,-0.27612 -7.19202,-0.31555 l -6.61351,-0.0395 v -1.95907 -1.95907 l 6.61351,-0.0395 6.60035,-0.0395 0.74945,-0.355 c 0.9598,-0.44704 1.80128,-1.28852 2.27462,-2.28778 0.3287,-0.67055 0.3813,-0.9335 0.3813,-1.89332 0.0126,-0.94666 -0.0526,-1.23591 -0.35501,-1.90647 -0.47333,-1.02556 -1.3674,-1.91963 -2.3798,-2.39296 l -0.80204,-0.36815 -6.53462,-0.0395 -6.54776,-0.0395 v -1.95907 -1.95907 l 6.67925,-0.0395 c 6.57405,-0.0395 6.67924,-0.0395 7.27091,-0.32869 0.97295,-0.47334 1.77499,-1.27538 2.24831,-2.24834 0.39444,-0.78888 0.4339,-0.99925 0.4339,-1.99851 0,-0.99926 -0.0526,-1.22278 -0.4339,-1.9985 -0.52591,-1.065 -1.44628,-1.94593 -2.49814,-2.36667 -0.73629,-0.28925 -0.82832,-0.30241 -7.21831,-0.34185 l -6.48202,-0.0394 v -1.906475 -1.893333 h 6.15332 c 6.62665,0 7.09998,-0.03952 8.21757,-0.696852 3.16869,-1.867027 3.02407,-6.521454 -0.27612,-8.138667 l -0.88091,-0.433896 -6.60035,-0.03943 -6.61351,-0.03943 V 86.257958 84.28574 h 6.3111 c 6.14018,0 6.32424,-0.01318 7.19202,-0.289253 0.74945,-0.236666 1.03869,-0.420747 1.76184,-1.157036 0.76259,-0.749447 0.92037,-0.986113 1.15703,-1.761848 0.3287,-1.051848 0.34187,-1.722403 0.0789,-2.695367 -0.39444,-1.525181 -1.89332,-2.97147 -3.35276,-3.287021 -0.43389,-0.09203 -2.91889,-0.144643 -6.90276,-0.144643 h -6.24536 v -1.972208 -1.95907 l 6.61351,-0.03943 6.60035,-0.03943 0.74945,-0.355004 c 0.9598,-0.447028 1.80128,-1.288506 2.27462,-2.287768 0.3287,-0.670554 0.3813,-0.93351 0.3813,-1.893325 0.0126,-0.946667 -0.0526,-1.23592 -0.35501,-1.906473 -0.47333,-1.025559 -1.36741,-1.919624 -2.3798,-2.392956 l -0.80205,-0.368145 -6.79758,-0.03943 -6.81072,-0.03943 V 61.36873 c 0,-0.433888 -0.73628,-3.168692 -1.20961,-4.43091 -2.76112,-7.58646 -8.98017,-13.818662 -16.54034,-16.553466 -1.27536,-0.460185 -3.99702,-1.196483 -4.4309,-1.196483 h -0.28927 l -0.0394,-6.810716 -0.0395,-6.797569 -0.43387,-0.880924 c -1.74872,-3.549991 -6.61351,-3.628875 -8.33592,-0.13147 l -0.43387,0.880915 -0.0395,6.600357 -0.0395,6.613495 h -1.95907 -1.97222 v -6.35054 c 0,-6.955344 -0.0128,-7.034235 -0.80203,-8.257006 -0.74945,-1.170185 -2.44556,-2.090548 -3.86555,-2.090548 -0.77574,0 -2.12999,0.447029 -2.73481,0.907214 -0.6311,0.473334 -1.23592,1.235921 -1.59092,1.985366 -0.26296,0.578515 -0.27612,0.775743 -0.31555,7.192019 l -0.0395,6.613495 h -1.95906 -1.95907 l -0.0395,-6.613495 -0.0395,-6.600357 -0.355,-0.749438 c -0.44703,-0.959815 -1.28851,-1.801292 -2.28778,-2.274626 -0.67053,-0.3287 -0.93351,-0.381294 -1.89331,-0.381294 -0.94667,-0.01318 -1.23593,0.05261 -1.90647,0.354996 -1.02556,0.473334 -1.91964,1.367406 -2.39297,2.379808 l -0.36815,0.802041 -0.0395,6.534604 -0.0395,6.547761 h -1.93278 -1.93278 v -6.482018 c 0,-6.429423 0,-6.46887 -0.30241,-7.218308 -0.42073,-1.051847 -1.30164,-1.972217 -2.36665,-2.498145 -0.78889,-0.394441 -0.98612,-0.433887 -1.99851,-0.433887 -0.92037,0.01318 -1.24906,0.0657 -1.86702,0.355004 -0.98613,0.460176 -1.81444,1.235919 -2.28778,2.169431 l -0.3813,0.762594 -0.0394,6.66609 -0.0395,6.679239 H 98.432384 96.460163 V 32.50864 c 0,-6.626644 -0.03938,-7.099978 -0.696852,-8.217569 -1.867025,-3.168689 -6.521459,-3.024063 -8.138672,0.276121 l -0.433887,0.880915 -0.03951,6.600357 -0.03938,6.613495 H 85.152793 83.180585 V 32.37709 c 0,-6.929055 -0.02638,-7.139425 -0.815189,-8.309601 -0.828329,-1.235928 -2.41926,-2.103696 -3.839246,-2.103696 -1.341109,0 -2.97147,0.815181 -3.720917,1.880177 -0.93351,1.288515 -0.894072,0.907221 -0.93351,8.204421 l -0.03943,6.613495 H 71.87324 69.914172 l -0.03943,-6.613495 -0.03943,-6.600356 -0.433879,-0.880916 C 68.65198,23.05506 67.21884,22.095253 65.575321,22.016362 c -0.473332,-0.02634 -1.091285,0.01318 -1.367397,0.07888 z"
       id="path1352"
       style="font-weight:bold;font-size:160.231px;font-family:Roboto;-inkscape-font-specification:'Roboto, Bold';fill:url(#linearGradient1734);fill-opacity:1;stroke:none;stroke-width:0.0131481" /><g
       aria-label="A"
       transform="matrix(3.2337993,0,0,3.2640202,-591.44587,-573.73988)"
       id="text1800"
       style="font-weight:bold;font-size:42.6667px;font-family:Roboto;-inkscape-font-specification:'Roboto, Bold';white-space:pre;shape-inside:url(#rect1802);display:inline;fill:#ffffff;fill-opacity:0.849624;stroke-width:1.00157"><path
         d="m 220.83335,216.86265 h -10.95834 l -2.08334,6.25001 h -6.64584 l 11.29168,-30.33336 h 5.79167 l 11.35417,30.33336 h -6.64583 z m -9.27084,-5.0625 h 7.58334 l -3.81251,-11.35418 z"
         style="display:inline"
         id="path3440" /></g></g></svg>
