<?xml version="1.0" encoding="UTF-8" standalone="no"?>
<!-- Created with Inkscape (http://www.inkscape.org/) -->

<svg
   width="1023.9999"
   height="1023.9999"
   viewBox="0 0 270.93332 270.93332"
   version="1.1"
   id="svg5"
   xml:space="preserve"
   sodipodi:docname="bastion.svg"
   inkscape:version="1.2.2 (732a01da63, 2022-12-09)"
   xmlns:inkscape="http://www.inkscape.org/namespaces/inkscape"
   xmlns:sodipodi="http://sodipodi.sourceforge.net/DTD/sodipodi-0.dtd"
   xmlns:xlink="http://www.w3.org/1999/xlink"
   xmlns="http://www.w3.org/2000/svg"
   xmlns:svg="http://www.w3.org/2000/svg"><sodipodi:namedview
     id="namedview27"
     pagecolor="#505050"
     bordercolor="#eeeeee"
     borderopacity="1"
     inkscape:showpageshadow="0"
     inkscape:pageopacity="0"
     inkscape:pagecheckerboard="0"
     inkscape:deskcolor="#505050"
     showgrid="false"
     inkscape:zoom="0.63931875"
     inkscape:cx="389.47708"
     inkscape:cy="494.27613"
     inkscape:window-width="1440"
     inkscape:window-height="877"
     inkscape:window-x="-8"
     inkscape:window-y="-8"
     inkscape:window-maximized="1"
     inkscape:current-layer="svg5" /><defs
     id="defs2"><linearGradient
       inkscape:collect="always"
       id="linearGradient9082"><stop
         style="stop-color:#000000;stop-opacity:0.86842108;"
         offset="0"
         id="stop9078" /><stop
         style="stop-color:#000000;stop-opacity:0.45789474;"
         offset="1"
         id="stop9080" /></linearGradient><linearGradient
       inkscape:collect="always"
       id="linearGradient5062"><stop
         style="stop-color:#b0a4ff;stop-opacity:1;"
         offset="0"
         id="stop5058" /><stop
         style="stop-color:#a099ff;stop-opacity:1;"
         offset="1"
         id="stop5060" /></linearGradient><linearGradient
       inkscape:collect="always"
       id="linearGradient983"><stop
         style="stop-color:#3477cb;stop-opacity:1;"
         offset="0"
         id="stop979" /><stop
         style="stop-color:#193960;stop-opacity:1;"
         offset="1"
         id="stop981" /></linearGradient><linearGradient
       id="linearGradient6356"><stop
         style="stop-color:#272727;stop-opacity:1;"
         offset="0"
         id="stop6352" /><stop
         style="stop-color:#0d0d0d;stop-opacity:1;"
         offset="1"
         id="stop6354" /></linearGradient><linearGradient
       id="linearGradient1033"><stop
         style="stop-color:#224488;stop-opacity:0.60000002;"
         offset="0"
         id="stop1029" /><stop
         style="stop-color:#68c3df;stop-opacity:1;"
         offset="1"
         id="stop1031" /></linearGradient><linearGradient
       xlink:href="#linearGradient1033"
       id="linearGradient1035"
       x1="0"
       y1="270.93332"
       x2="270.93332"
       y2="0"
       gradientUnits="userSpaceOnUse"
       gradientTransform="translate(5.5816874,5.8142619)" /><linearGradient
       xlink:href="#linearGradient6356"
       id="linearGradient6349"
       gradientUnits="userSpaceOnUse"
       gradientTransform="matrix(1.0429741,0,0,1.044845,-270.93332,-9.0820311e-7)"
       x1="0"
       y1="270.93332"
       x2="270.93332"
       y2="0" /><linearGradient
       inkscape:collect="always"
       xlink:href="#linearGradient983"
       id="linearGradient985"
       x1="5.5816875"
       y1="135.46667"
       x2="265.35165"
       y2="135.46667"
       gradientUnits="userSpaceOnUse" /><linearGradient
       inkscape:collect="always"
       xlink:href="#linearGradient5062"
       id="linearGradient5064"
       x1="61.382229"
       y1="221.07654"
       x2="198.98537"
       y2="41.843258"
       gradientUnits="userSpaceOnUse" /><linearGradient
       inkscape:collect="always"
       xlink:href="#linearGradient983"
       id="linearGradient9062"
       gradientUnits="userSpaceOnUse"
       x1="5.5816875"
       y1="265.11908"
       x2="235.73837"
       y2="19.307077" /><linearGradient
       inkscape:collect="always"
       xlink:href="#linearGradient9082"
       id="linearGradient9084"
       x1="61.382229"
       y1="221.07654"
       x2="198.98537"
       y2="41.843258"
       gradientUnits="userSpaceOnUse" /></defs><g
     id="layer2"
     style="display:inline"><rect
       style="display:inline;fill:url(#linearGradient6349);fill-opacity:1;fill-rule:evenodd;stroke-width:0.276201"
       id="rect967-8"
       width="270.93332"
       height="270.93332"
       x="-270.93332"
       y="0"
       ry="18.76346"
       transform="rotate(-90)" /></g><g
     id="layer1"
     style="display:inline;fill-opacity:1;fill:url(#linearGradient985)"><rect
       style="display:inline;fill:url(#linearGradient9062);fill-opacity:1;fill-rule:evenodd;stroke-width:0.264583"
       id="rect967"
       width="259.76996"
       height="259.30481"
       x="5.5816875"
       y="5.8142619"
       ry="17.958128" /></g><path
     d="m 52.604765,20.132406 c -4.458188,0.252692 -5.432853,1.191255 -5.992383,5.685543 -0.27074,2.310319 -0.27074,36.026493 0,38.896339 l 0.180494,1.877132 0.794171,0.703924 c 2.671303,2.328365 9.63835,7.779268 23.319753,18.17569 l 3.916708,2.978145 -0.01805,41.513491 v 41.51349 l -3.627918,3.79036 c -9.475906,9.90909 -16.659545,17.63421 -18.879614,20.28746 -1.804935,2.14788 -1.714689,1.58835 -1.841034,13.28432 l -0.09025,10.10764 -5.234309,0.0902 c -5.992383,0.10829 -5.956284,0.0902 -7.959762,1.80493 l -1.119059,0.93857 -0.126345,9.512 c -0.144395,9.36761 -0.0722,12.90528 0.288789,15.16145 0.379037,2.47276 1.570293,3.77231 3.645968,4.00695 0.613677,0.0722 5.956283,0.23464 11.85842,0.34294 7.941711,0.16245 32.849805,0.19854 95.751776,0.12634 l 85.01241,-0.10829 1.01076,-1.06491 c 0.66783,-0.70393 1.08297,-1.33565 1.24541,-1.85908 0.1805,-0.59563 0.25269,-3.33913 0.30684,-10.86571 0.12635,-14.58387 -0.0902,-16.13611 -2.31032,-17.23712 -0.90246,-0.45124 -3.80841,-0.74003 -7.56267,-0.75807 -1.04687,0 -2.43667,-0.0542 -3.10449,-0.12635 l -1.22735,-0.1083 v -6.10067 c 0,-7.32804 -0.2888,-14.07849 -0.63173,-14.87267 -0.48733,-1.10101 -5.27041,-6.46166 -16.6415,-18.62692 l -7.27388,-7.79732 V 129.92652 88.449129 l 4.90942,-3.700119 c 16.20831,-12.219408 22.41729,-17.146877 22.97682,-18.247887 0.55952,-1.082961 0.68587,-5.487002 0.55952,-21.911906 -0.10829,-14.619968 -0.25269,-19.998674 -0.57758,-21.532867 -0.16244,-0.758074 -1.37174,-2.129824 -2.11177,-2.364465 -1.2454,-0.415135 -5.21626,-0.559529 -17.8147,-0.667827 -14.60192,-0.126343 -18.51863,0 -19.98063,0.649777 -1.06491,0.469287 -1.60639,0.956619 -2.09372,1.895182 -0.75807,1.480048 -0.88442,2.599106 -0.97467,8.89833 l -0.0902,5.992381 -9.87299,-0.03612 -9.85495,-0.05415 -0.19854,-6.768506 c -0.12634,-3.718163 -0.28879,-7.039242 -0.39709,-7.34608 -0.48733,-1.516148 -1.57029,-2.256172 -3.9528,-2.689352 -2.00348,-0.36099 -11.56963,-0.59563 -25.14274,-0.59563 -11.40718,-0.01806 -16.98443,0.144393 -18.28399,0.523433 -1.37174,0.397085 -2.5269,1.895177 -2.99619,3.880608 -0.34293,1.498097 -0.55952,4.999665 -0.55952,9.151015 v 3.934759 h -9.8008 -9.818843 l -0.108293,-2.039576 c -0.0722,-1.101008 -0.126348,-3.284978 -0.126348,-4.819177 -0.01806,-3.682062 -0.270742,-6.967045 -0.59563,-7.761215 -0.541479,-1.263457 -1.660537,-1.949329 -3.826462,-2.346414 -0.595625,-0.108298 -3.393275,-0.270742 -6.227022,-0.360989 -5.829938,-0.180495 -23.572444,-0.180495 -26.731079,0 z"
     id="path3912"
     style="fill:url(#linearGradient9084);stroke:url(#linearGradient5064);stroke-width:1.71979179;fill-opacity:1;stroke-dasharray:none" /><g
     aria-label="B"
     id="text5204"
     style="font-weight:bold;font-size:142.293px;font-family:Roboto;-inkscape-font-specification:'Roboto, Bold';fill:#ffffff;fill-opacity:0.87218;stroke-width:33.3499;stroke-linecap:round;stroke-linejoin:round"><path
       d="M 97.878515,179.85739 V 78.695962 h 35.434295 q 18.41193,0 27.93056,7.086859 9.51862,7.017379 9.51862,20.635259 0,7.43426 -3.82135,13.13154 -3.82134,5.6278 -10.63028,8.268 7.78165,1.94541 12.2283,7.85113 4.51614,5.90571 4.51614,14.45163 0,14.59059 -9.31019,22.09432 -9.31019,7.50373 -26.54098,7.64269 z M 118.72222,135.8077 v 27.30525 h 17.8561 q 7.36477,0 11.46404,-3.47395 4.16874,-3.54343 4.16874,-9.72706 0,-13.8958 -14.38216,-14.10424 z m 0,-14.72955 h 15.42434 q 15.77173,-0.27791 15.77173,-12.5757 0,-6.87842 -4.02978,-9.866014 -3.96031,-3.057076 -12.5757,-3.057076 h -14.59059 z"
       id="path314" /></g></svg>
